name C:\Users\u0101727\Documents\MyRepositories\predictivesimulations\OpenSimModel\subject1\EMG\EMG_gait_27.mot
datacolumns 25
datarows 15
range 1.12100000 1.13500000
endheader
time	HamL_r	TA_r	PerL_r	GL_r	HamM_r	Sol_r	VL_r	VM_r	PerB_l	TA_l	PerL_l	GL_l	GM_l	Sol_l	VL_l	VM_l	AddL_l	RF_l	TFL_l	GluMed_l	HamL_l	HamM_l	GluMed_r	RF_r	
          1.12100000	          0.00462271	          0.00339757	          0.02973586	          0.00470218	          0.03768230	          0.04643693	          0.01176032	          0.00292924	          0.02140459	          0.07191498	          0.02526786	          0.01085551	          0.01214952	          0.01644989	          0.00376009	          0.00480468	          0.00831589	          0.00457529	          0.00734428	          0.00573819	          0.00569114	          0.00654282	          0.03560253	          0.00567648	
          1.12200000	          0.00461941	          0.00341547	          0.02981069	          0.00469712	          0.03787412	          0.04648524	          0.01147979	          0.00295153	          0.02104516	          0.06935318	          0.02487963	          0.01060991	          0.01184762	          0.01624431	          0.00375836	          0.00477805	          0.00833823	          0.00453764	          0.00730201	          0.00575321	          0.00568187	          0.00659542	          0.03581129	          0.00566774	
          1.12300000	          0.00461279	          0.00343401	          0.02990326	          0.00469069	          0.03803133	          0.04655064	          0.01120510	          0.00297486	          0.02068601	          0.06682115	          0.02449142	          0.01036900	          0.01155749	          0.01604198	          0.00375663	          0.00475134	          0.00836255	          0.00450012	          0.00726162	          0.00576834	          0.00567306	          0.00664572	          0.03601776	          0.00566729	
          1.12400000	          0.00460299	          0.00345309	          0.03001331	          0.00468308	          0.03815501	          0.04663317	          0.01093747	          0.00299908	          0.02032856	          0.06432692	          0.02410560	          0.01013332	          0.01128034	          0.01584329	          0.00375486	          0.00472461	          0.00838889	          0.00446268	          0.00722267	          0.00578353	          0.00566455	          0.00669329	          0.03621979	          0.00567499	
          1.12500000	          0.00459010	          0.00347264	          0.03014036	          0.00467448	          0.03824649	          0.04673298	          0.01067800	          0.00302403	          0.01997413	          0.06187813	          0.02372431	          0.00990341	          0.01101732	          0.01564862	          0.00375298	          0.00469789	          0.00841723	          0.00442531	          0.00718474	          0.00579871	          0.00565620	          0.00673781	          0.03641567	          0.00569064	
          1.12600000	          0.00457425	          0.00349260	          0.03028362	          0.00466502	          0.03830714	          0.04685036	          0.01042774	          0.00304951	          0.01962393	          0.05948205	          0.02334941	          0.00967981	          0.01076956	          0.01545835	          0.00375096	          0.00467118	          0.00844750	          0.00438794	          0.00714748	          0.00581378	          0.00564786	          0.00677906	          0.03660390	          0.00571402	
          1.12700000	          0.00455552	          0.00351293	          0.03044194	          0.00465481	          0.03833832	          0.04698560	          0.01018761	          0.00307527	          0.01927910	          0.05714541	          0.02298257	          0.00946304	          0.01053812	          0.01527284	          0.00374881	          0.00464446	          0.00847962	          0.00435051	          0.00711069	          0.00582861	          0.00563932	          0.00681686	          0.03678301	          0.00574487	
          1.12800000	          0.00453401	          0.00353359	          0.03061379	          0.00464393	          0.03834165	          0.04713882	          0.00995850	          0.00310106	          0.01894071	          0.05487436	          0.02262531	          0.00925351	          0.01032397	          0.01509238	          0.00374658	          0.00461768	          0.00851354	          0.00431297	          0.00707427	          0.00584307	          0.00563035	          0.00685101	          0.03695151	          0.00578293	
          1.12900000	          0.00450980	          0.00355449	          0.03079735	          0.00463243	          0.03831899	          0.04730989	          0.00974118	          0.00312658	          0.01860968	          0.05267435	          0.02227907	          0.00905159	          0.01012799	          0.01491709	          0.00374433	          0.00459082	          0.00854933	          0.00427529	          0.00703818	          0.00585698	          0.00562065	          0.00688137	          0.03710791	          0.00582803	
          1.13000000	          0.00448304	          0.00357555	          0.03099061	          0.00462037	          0.03827228	          0.04749837	          0.00953636	          0.00315154	          0.01828682	          0.05055020	          0.02194523	          0.00885756	          0.00995095	          0.01474702	          0.00374214	          0.00456384	          0.00858707	          0.00423743	          0.00700241	          0.00587017	          0.00560988	          0.00690777	          0.03725069	          0.00588002	
          1.13100000	          0.00445390	          0.00359670	          0.03119157	          0.00460780	          0.03820329	          0.04770368	          0.00934467	          0.00317564	          0.01797285	          0.04850617	          0.02162496	          0.00867168	          0.00979356	          0.01458214	          0.00374006	          0.00453672	          0.00862687	          0.00419932	          0.00696700	          0.00588252	          0.00559768	          0.00693011	          0.03737832	          0.00593873	
          1.13200000	          0.00442255	          0.00361783	          0.03139852	          0.00459475	          0.03811340	          0.04792518	          0.00916661	          0.00319863	          0.01766850	          0.04654594	          0.02131917	          0.00849421	          0.00965647	          0.01442237	          0.00373810	          0.00450945	          0.00866876	          0.00416092	          0.00693205	          0.00589397	          0.00558374	          0.00694829	          0.03748949	          0.00600396	
          1.13300000	          0.00438916	          0.00363884	          0.03160995	          0.00458125	          0.03800346	          0.04816241	          0.00900261	          0.00322034	          0.01737447	          0.04467258	          0.02102855	          0.00832546	          0.00954022	          0.01426764	          0.00373629	          0.00448204	          0.00871275	          0.00412219	          0.00689767	          0.00590447	          0.00556782	          0.00696226	          0.03758354	          0.00607544	
          1.13400000	          0.00435388	          0.00365964	          0.03182451	          0.00456742	          0.03787393	          0.04841503	          0.00885305	          0.00324065	          0.01709147	          0.04288852	          0.02075351	          0.00816573	          0.00944530	          0.01411784	          0.00373469	          0.00445451	          0.00875883	          0.00408316	          0.00686393	          0.00591400	          0.00554975	          0.00697200	          0.03766049	          0.00615284	
          1.13500000	          0.00431690	          0.00368014	          0.03204095	          0.00455339	          0.03772487	          0.04868270	          0.00871823	          0.00325953	          0.01682016	          0.04119553	          0.02049428	          0.00801524	          0.00937218	          0.01397291	          0.00373333	          0.00442694	          0.00880691	          0.00404387	          0.00683089	          0.00592251	          0.00552938	          0.00697757	          0.03772077	          0.00623577	
